<svg width="25" height="29" viewBox="0 0 25 29" fill="none" xmlns="http://www.w3.org/2000/svg">
<mask id="mask0_1_7" style="mask-type:alpha" maskUnits="userSpaceOnUse" x="0" y="0" width="25" height="29">
<rect x="0.756733" y="0.0309792" width="24" height="28.2423" fill="#D9D9D9"/>
</mask>
<g mask="url(#mask0_1_7)">
<path d="M12.7694 6.27333C12.7612 6.39624 12.7567 6.52041 12.7567 6.6454C12.7568 7.21249 12.8425 7.75957 13.0019 8.2743C12.9212 8.27393 12.8395 8.27333 12.7567 8.27333C10.9901 8.27333 9.6984 8.3775 8.88173 8.58583C8.06517 8.79414 7.50696 9.02337 7.20693 9.27333H13.4237C13.8666 10.0863 14.5095 10.774 15.2851 11.2733H13.7567V14.2733H18.7567V12.1229C19.4719 12.0587 20.1468 11.8573 20.7567 11.5458V19.7733C20.7567 20.7567 20.419 21.5856 19.744 22.2606C19.069 22.9356 18.2401 23.2733 17.2567 23.2733L18.7567 24.7733V25.2733H16.7567L14.7567 23.2733H10.7567L8.75673 25.2733H6.75673V24.7733L8.25673 23.2733C7.2734 23.2733 6.44443 22.9356 5.76943 22.2606C5.09443 21.5856 4.75673 20.7567 4.75673 19.7733V10.2733C4.75673 9.39006 4.98596 8.68601 5.44423 8.16102C5.90257 7.63602 6.50673 7.23583 7.25673 6.96083C8.00673 6.68583 8.86091 6.50269 9.81923 6.41102C10.7776 6.31936 11.7567 6.27333 12.7567 6.27333C12.761 6.27333 12.7652 6.27333 12.7694 6.27333ZM6.75673 19.7733C6.75673 20.2067 6.8982 20.5652 7.18154 20.8485C7.46487 21.1319 7.8234 21.2733 8.25673 21.2733H17.2567C17.6901 21.2733 18.0486 21.1319 18.3319 20.8485C18.6153 20.5652 18.7567 20.2067 18.7567 19.7733V16.2733H6.75673V19.7733ZM9.25673 17.2733C9.69007 17.2733 10.0486 17.4148 10.3319 17.6981C10.6153 17.9815 10.7567 18.34 10.7567 18.7733C10.7567 19.2067 10.6153 19.5652 10.3319 19.8485C10.0486 20.1319 9.69007 20.2733 9.25673 20.2733C8.8234 20.2733 8.46487 20.1319 8.18154 19.8485C7.8982 19.5652 7.75673 19.2067 7.75673 18.7733C7.75673 18.34 7.8982 17.9815 8.18154 17.6981C8.46487 17.4148 8.8234 17.2733 9.25673 17.2733ZM16.2567 17.2733C16.6901 17.2733 17.0486 17.4148 17.3319 17.6981C17.6153 17.9815 17.7567 18.34 17.7567 18.7733C17.7567 19.2067 17.6153 19.5652 17.3319 19.8485C17.0486 20.1319 16.6901 20.2733 16.2567 20.2733C15.8234 20.2733 15.4649 20.1319 15.1815 19.8485C14.8982 19.5652 14.7567 19.2067 14.7567 18.7733C14.7567 18.34 14.8982 17.9815 15.1815 17.6981C15.4649 17.4148 15.8234 17.2733 16.2567 17.2733ZM6.75673 14.2733H11.7567V11.2733H6.75673V14.2733Z" fill="white"/>
<path d="M18.4396 8.832C18.5737 8.832 18.6862 8.78662 18.777 8.69585C18.8678 8.60508 18.9131 8.49261 18.9131 8.35843C18.9131 8.22425 18.8678 8.11178 18.777 8.02101C18.6862 7.93025 18.5737 7.88486 18.4396 7.88486C18.3054 7.88486 18.1929 7.93025 18.1021 8.02101C18.0114 8.11178 17.966 8.22425 17.966 8.35843C17.966 8.49261 18.0114 8.60508 18.1021 8.69585C18.1929 8.78662 18.3054 8.832 18.4396 8.832ZM17.966 6.93772H18.9131V4.09631H17.966V6.93772ZM18.4396 11.1998C17.7845 11.1998 17.1688 11.0755 16.5926 10.8269C16.0165 10.5783 15.5153 10.2409 15.0891 9.81466C14.6628 9.38845 14.3254 8.88725 14.0768 8.31108C13.8282 7.7349 13.7039 7.11926 13.7039 6.46415C13.7039 5.80905 13.8282 5.19341 14.0768 4.61723C14.3254 4.04106 14.6628 3.53986 15.0891 3.11365C15.5153 2.68744 16.0165 2.35002 16.5926 2.1014C17.1688 1.85277 17.7845 1.72846 18.4396 1.72846C19.0947 1.72846 19.7103 1.85277 20.2865 2.1014C20.8627 2.35002 21.3639 2.68744 21.7901 3.11365C22.2163 3.53986 22.5537 4.04106 22.8023 4.61723C23.0509 5.19341 23.1753 5.80905 23.1753 6.46415C23.1753 7.11926 23.0509 7.7349 22.8023 8.31108C22.5537 8.88725 22.2163 9.38845 21.7901 9.81466C21.3639 10.2409 20.8627 10.5783 20.2865 10.8269C19.7103 11.0755 19.0947 11.1998 18.4396 11.1998Z" fill="white"/>
</g>
</svg>
