<svg width="25" height="29" viewBox="0 0 25 29" fill="none" xmlns="http://www.w3.org/2000/svg">
<mask id="mask0_1_38" style="mask-type:alpha" maskUnits="userSpaceOnUse" x="0" y="0" width="25" height="29">
<rect x="0.98189" y="0.0309792" width="24" height="28.2423" fill="#D9D9D9"/>
</mask>
<g mask="url(#mask0_1_38)">
<path d="M12.9819 6.27333C13.3685 6.27333 13.7474 6.28056 14.1186 6.29188L12.6801 7.3827L12.3276 7.6493L12.5493 8.03212L12.6899 8.27528C11.0722 8.28628 9.87788 8.38915 9.10689 8.58583C8.29033 8.79413 7.73211 9.02337 7.43209 9.27333H13.268L14.3891 11.2099L14.4262 11.2733H13.9819V14.2733H18.9819V13.2157H20.9819V19.7733C20.9819 20.7567 20.6442 21.5856 19.9692 22.2606C19.2942 22.9356 18.4652 23.2733 17.4819 23.2733L18.9819 24.7733V25.2733H16.9819L14.9819 23.2733H10.9819L8.98189 25.2733H6.98189V24.7733L8.48189 23.2733C7.49856 23.2733 6.66959 22.9356 5.99459 22.2606C5.31959 21.5856 4.98189 20.7567 4.98189 19.7733V10.2733C4.98189 9.39006 5.21112 8.68601 5.66939 8.16102C6.12772 7.63602 6.73189 7.23583 7.48189 6.96083C8.23188 6.68583 9.08606 6.50269 10.0444 6.41102C11.0027 6.31936 11.9819 6.27333 12.9819 6.27333ZM6.98189 19.7733C6.98189 20.2067 7.12336 20.5652 7.40669 20.8485C7.69003 21.1319 8.04856 21.2733 8.48189 21.2733H17.4819C17.9152 21.2733 18.2738 21.1319 18.5571 20.8485C18.8404 20.5652 18.9819 20.2067 18.9819 19.7733V16.2733H6.98189V19.7733ZM9.48189 17.2733C9.91522 17.2733 10.2738 17.4148 10.5571 17.6981C10.8404 17.9815 10.9819 18.34 10.9819 18.7733C10.9819 19.2067 10.8404 19.5652 10.5571 19.8485C10.2738 20.1319 9.91522 20.2733 9.48189 20.2733C9.04856 20.2733 8.69003 20.1319 8.40669 19.8485C8.12336 19.5652 7.98189 19.2067 7.98189 18.7733C7.98189 18.34 8.12336 17.9815 8.40669 17.6981C8.69003 17.4148 9.04856 17.2733 9.48189 17.2733ZM16.4819 17.2733C16.9152 17.2733 17.2738 17.4148 17.5571 17.6981C17.8404 17.9815 17.9819 18.34 17.9819 18.7733C17.9819 19.2067 17.8404 19.5652 17.5571 19.8485C17.2738 20.1319 16.9152 20.2733 16.4819 20.2733C16.0486 20.2733 15.69 20.1319 15.4067 19.8485C15.1234 19.5652 14.9819 19.2067 14.9819 18.7733C14.9819 18.34 15.1234 17.9815 15.4067 17.6981C15.69 17.4148 16.0486 17.2733 16.4819 17.2733ZM6.98189 14.2733H11.9819V11.2733H6.98189V14.2733ZM16.9292 10.8016C16.9965 10.8426 17.0665 10.8793 17.1372 10.9149L17.1821 11.2733H15.3667L16.7534 10.6893C16.8114 10.7275 16.8699 10.7656 16.9292 10.8016Z" fill="white"/>
<path d="M17.9408 11.8251L17.7264 10.1096C17.6102 10.0649 17.5007 10.0113 17.398 9.94879C17.2952 9.88625 17.1947 9.81924 17.0964 9.74776L15.5016 10.4179L14.0273 7.87141L15.4077 6.82602C15.3988 6.76348 15.3943 6.70317 15.3943 6.64509V6.28322C15.3943 6.22515 15.3988 6.16483 15.4077 6.10229L14.0273 5.0569L15.5016 2.51043L17.0964 3.18056C17.1947 3.10908 17.2975 3.04206 17.4047 2.97952C17.5119 2.91697 17.6191 2.86336 17.7264 2.81869L17.9408 1.10318H20.8893L21.1038 2.81869C21.2199 2.86336 21.3294 2.91697 21.4321 2.97952C21.5349 3.04206 21.6354 3.10908 21.7337 3.18056L23.3286 2.51043L24.8029 5.0569L23.4224 6.10229C23.4313 6.16483 23.4358 6.22515 23.4358 6.28322V6.64509C23.4358 6.70317 23.4269 6.76348 23.409 6.82602L24.7894 7.87141L23.3152 10.4179L21.7337 9.74776C21.6354 9.81924 21.5327 9.88625 21.4254 9.94879C21.3182 10.0113 21.211 10.0649 21.1038 10.1096L20.8893 11.8251H17.9408ZM19.4419 8.3405C19.9601 8.3405 20.4024 8.15733 20.7687 7.791C21.135 7.42466 21.3182 6.98238 21.3182 6.46416C21.3182 5.94593 21.135 5.50365 20.7687 5.13731C20.4024 4.77098 19.9601 4.58781 19.4419 4.58781C18.9147 4.58781 18.4702 4.77098 18.1083 5.13731C17.7465 5.50365 17.5655 5.94593 17.5655 6.46416C17.5655 6.98238 17.7465 7.42466 18.1083 7.791C18.4702 8.15733 18.9147 8.3405 19.4419 8.3405Z" fill="white"/>
</g>
</svg>
